<svg width="100" height="35" viewBox="0 0 100 35" fill="none" xmlns="http://www.w3.org/2000/svg">
<g clip-path="url(#clip0_14_43)">
<path d="M39.6726 26.8976C37.6878 26.7748 36.1092 26.1611 35.0271 24.6197C34.4843 23.8439 34.552 23.1826 35.1459 22.7669C35.7398 22.3512 36.2007 22.4751 36.892 23.2648C37.9693 24.4935 39.3306 24.8861 40.7512 24.3893C41.5482 24.1079 42.097 23.6343 42.0684 22.7333C42.0411 21.8625 41.3938 21.5521 40.6775 21.3437C39.6346 21.0414 38.5395 20.8631 37.5417 20.4636C35.6543 19.7097 34.7492 18.2853 34.9856 16.7023C35.2457 14.9537 36.7423 13.5096 38.6179 13.2444C40.3141 13.0047 41.9057 13.2537 43.1885 14.4569C43.4962 14.7452 43.767 15.2003 43.7967 15.5964C43.8181 15.8917 43.4772 16.407 43.2028 16.4799C42.9894 16.5217 42.7695 16.5215 42.5562 16.4793C42.3428 16.4372 42.1403 16.3539 41.9604 16.2344C40.9377 15.4945 39.8651 15.2049 38.6404 15.5917C37.9396 15.8129 37.4229 16.2136 37.3647 17.0057C37.303 17.8545 37.8791 18.2205 38.5644 18.4335C39.4648 18.7138 40.4079 18.8701 41.2964 19.1666C42.6647 19.6217 43.9095 20.2667 44.3015 21.7918C44.8681 24.0071 43.337 26.2144 40.8937 26.7216C40.4471 26.8107 39.9874 26.8524 39.6726 26.8976Z" fill="white"/>
<path d="M48.1179 22.8514C48.9102 24.5306 50.332 25.0343 52.0258 24.3395C52.8442 24.0037 53.3846 24.1461 53.7065 24.783C54.0166 25.3956 53.7742 25.9816 53.0449 26.3742C52.9458 26.4282 52.8435 26.4766 52.7385 26.5189C50.4389 27.428 47.6107 26.5444 46.2745 24.4993C45.1353 22.7565 45.2541 20.3582 46.5583 18.7451C47.9219 17.059 50.256 16.3722 52.2895 17.059C54.348 17.7538 55.8066 19.6472 55.847 21.676C55.8612 22.3975 55.4063 22.8341 54.5962 22.848C53.5272 22.8607 52.4582 22.848 51.3974 22.848L48.1179 22.8514ZM48.1583 20.9094H53.3431C52.9452 19.6356 51.8453 18.9002 50.5256 18.9778C49.3342 19.0473 48.3567 19.8336 48.1583 20.9094Z" fill="white"/>
<path d="M92.0999 22.8514C92.8364 24.4623 94.2807 24.9926 95.8403 24.4275C96.2917 24.2642 96.9652 24.2029 97.3393 24.4194C98.1803 24.9058 97.8964 25.9573 96.8642 26.4355C94.6157 27.4778 91.6236 26.6092 90.2458 24.5074C89.1019 22.7623 89.2159 20.3744 90.5201 18.7532C91.1724 17.9418 92.0611 17.3417 93.0695 17.0317C94.0779 16.7217 95.1589 16.7163 96.1705 17.0161C98.223 17.6484 99.7601 19.6113 99.8123 21.6644C99.8301 22.3882 99.3776 22.8399 98.5723 22.8445C96.4496 22.8584 94.3116 22.8514 92.0999 22.8514ZM92.0999 20.9279H97.2954C97.0055 19.7525 95.9722 18.9859 94.7107 18.9743C93.4493 18.9628 92.4111 19.7109 92.0999 20.9279Z" fill="white"/>
<path d="M79.0661 21.771C79.135 19.785 80.077 18.2286 81.9739 17.3276C83.891 16.4174 85.7665 16.6027 87.4865 17.8638C88.0079 18.2459 88.4284 18.7265 88.1469 19.4376C87.8393 20.2169 87.0482 20.364 86.206 19.91C85.6193 19.5927 84.9873 19.2407 84.3424 19.1643C83.1308 19.0195 82.1224 19.7433 81.6686 20.8677C81.2363 21.9377 81.5582 23.1259 82.4918 23.9052C83.3779 24.6452 84.5657 24.7413 85.624 24.1484C85.8723 24.0095 86.0991 23.8265 86.3367 23.6852C86.9306 23.3309 87.4972 23.354 87.9628 23.8774C88.4522 24.4287 88.2704 24.9683 87.8298 25.4616C86.5422 26.9011 83.8126 27.2832 81.8432 26.2723C80.0366 25.3343 79.116 23.8554 79.0661 21.771Z" fill="white"/>
<path d="M69.0387 22.8815C69.8547 20.9835 70.5591 19.3044 71.2955 17.6403C71.6412 16.8633 72.2327 16.6154 72.8622 16.9293C73.4918 17.2431 73.7424 17.7561 73.4645 18.3988C72.3741 20.9268 71.2837 23.4559 70.122 25.9526C69.9593 26.3 69.395 26.6799 69.0233 26.6741C68.6515 26.6683 68.092 26.2838 67.9269 25.9283C66.7902 23.4814 65.7224 21.0044 64.6593 18.525C64.3374 17.7746 64.5844 17.1817 65.2401 16.9038C65.8696 16.6398 66.4707 16.913 66.8056 17.6762C67.5385 19.3391 68.2417 21.0183 69.0387 22.8815Z" fill="white"/>
<path d="M57.2783 21.3738C57.5776 18.884 59.7881 16.898 62.3347 16.7915C63.1923 16.7556 63.7803 17.169 63.8349 17.8453C63.886 18.488 63.4216 18.9523 62.5889 19.0901C60.3915 19.4538 59.5398 20.4369 59.5387 22.6129C59.5387 23.5671 59.5493 24.5225 59.5387 25.4767C59.5268 26.2155 59.0635 26.7181 58.4352 26.7308C57.7451 26.7447 57.2319 26.256 57.1927 25.4941C57.1595 24.9058 57.1856 22.152 57.2783 21.3738Z" fill="white"/>
<path d="M77.5351 21.8544C77.5351 23.0622 77.5458 24.2689 77.5351 25.4767C77.5256 26.3012 77.0991 26.7911 76.4197 26.8119C75.6702 26.8351 75.1606 26.3487 75.1547 25.5195C75.1357 23.0491 75.1357 20.5786 75.1547 18.1081C75.1547 17.36 75.675 16.8192 76.3294 16.7961C77.0017 16.7718 77.5256 17.3346 77.5374 18.151C77.5481 19.3831 77.5351 20.613 77.5351 21.8544Z" fill="white"/>
<path d="M76.3283 13.0336C76.9816 13.0186 77.6206 13.6127 77.6348 14.2449C77.6407 14.4132 77.6114 14.5808 77.5487 14.7376C77.4861 14.8945 77.3914 15.0373 77.2704 15.1574C77.1495 15.2775 77.0047 15.3724 76.845 15.4363C76.6853 15.5002 76.514 15.5318 76.3413 15.5292C76.1767 15.5288 76.0137 15.4964 75.862 15.434C75.7102 15.3717 75.5727 15.2805 75.4574 15.1658C75.3422 15.0512 75.2514 14.9153 75.1905 14.7662C75.1295 14.6171 75.0996 14.4576 75.1024 14.2971C75.1045 13.9742 75.2322 13.6642 75.4598 13.4297C75.6874 13.1951 75.9978 13.0536 76.3283 13.0336Z" fill="url(#paint0_linear_14_43)"/>
<path fill-rule="evenodd" clip-rule="evenodd" d="M22.2345 34.9089H18.032C17.6824 34.9089 17.347 34.7734 17.0998 34.5324C16.8525 34.2913 16.7136 33.9644 16.7136 33.6234V1.95013C16.7134 1.77003 16.7497 1.59167 16.8203 1.42525C16.8909 1.25883 16.9945 1.10762 17.1251 0.980267C17.2558 0.852918 17.4109 0.751929 17.5816 0.683078C17.7523 0.614227 17.9352 0.578866 18.1199 0.579018H22.1478C22.5205 0.579018 22.8779 0.723352 23.1414 0.980268C23.4049 1.23718 23.553 1.58564 23.553 1.94897V33.6234C23.553 33.7922 23.5189 33.9594 23.4526 34.1153C23.3863 34.2713 23.2892 34.413 23.1668 34.5324C23.0444 34.6517 22.899 34.7464 22.739 34.811C22.5791 34.8756 22.4076 34.9089 22.2345 34.9089ZM9.76731 7.91746H13.9698C14.6979 7.91746 15.2882 8.49296 15.2882 9.20288V25.5265C15.2882 26.2364 14.6979 26.8119 13.9698 26.8119H9.76731C9.03914 26.8119 8.44884 26.2364 8.44884 25.5265V9.20288C8.44884 8.49296 9.03914 7.91746 9.76731 7.91746ZM1.50257 16.268H5.70502C6.43318 16.268 7.02348 16.8435 7.02348 17.5534V25.5265C7.02348 26.2364 6.43318 26.8119 5.70502 26.8119H1.50257C0.7744 26.8119 0.184105 26.2364 0.184105 25.5265V17.5534C0.184105 16.8435 0.7744 16.268 1.50257 16.268ZM26.2968 20.1428H30.4992C31.2274 20.1428 31.8177 20.7183 31.8177 21.4282V25.5253C31.8177 26.2352 31.2274 26.8107 30.4992 26.8107H26.2968C25.5686 26.8107 24.9783 26.2352 24.9783 25.5253V21.4282C24.9783 20.7183 25.5686 20.1428 26.2968 20.1428Z" fill="url(#paint1_linear_14_43)"/>
</g>
<defs>
<linearGradient id="paint0_linear_14_43" x1="77.6356" y1="13.0334" x2="75.1399" y2="15.5664" gradientUnits="userSpaceOnUse">
<stop stop-color="#ED1C2A"/>
<stop offset="0.505208" stop-color="#EE2752"/>
<stop offset="1" stop-color="#444A49"/>
</linearGradient>
<linearGradient id="paint1_linear_14_43" x1="31.8331" y1="-0.810619" x2="-2.9398" y2="37.7842" gradientUnits="userSpaceOnUse">
<stop stop-color="#ED1C2A"/>
<stop offset="0.505208" stop-color="#EE2752"/>
<stop offset="1" stop-color="#444A49"/>
</linearGradient>
<clipPath id="clip0_14_43">
<rect width="100" height="35" fill="white"/>
</clipPath>
</defs>
</svg>
